<?xml version="1.0" encoding="iso-8859-1"?>
<!-- Uploaded to: SVG Repo, www.svgrepo.com, Generator: SVG Repo Mixer Tools -->
<svg height="800px" width="800px" version="1.1" id="Layer_1" xmlns="http://www.w3.org/2000/svg" xmlns:xlink="http://www.w3.org/1999/xlink" 
	 viewBox="0 0 512 512" xml:space="preserve">
<g>
	<path style="fill:#C19817;" d="M492.685,512H19.324C8.651,512,0,503.349,0,492.685v-76.129c0-10.664,8.651-19.315,19.324-19.315
		h473.362c10.673,0,19.315,8.651,19.315,19.315v76.129C512,503.349,503.358,512,492.685,512"/>
	<g>
		<path style="fill:#EEC319;" d="M256.004,105.931c-117.01,0-211.862,106.708-211.862,238.345v52.966h423.724v-52.966
			C467.866,212.639,373.013,105.931,256.004,105.931"/>
		<path style="fill:#EEC319;" d="M308.969,52.966c0,29.255-23.711,52.966-52.966,52.966s-52.966-23.711-52.966-52.966
			S226.749,0,256.004,0S308.969,23.711,308.969,52.966"/>
	</g>
	<g>
		<path style="fill:#C19817;" d="M256.004,450.207c-4.873,0-8.828-3.946-8.828-8.828V308.966c0-4.882,3.955-8.828,8.828-8.828
			s8.828,3.946,8.828,8.828v132.414C264.831,446.261,260.876,450.207,256.004,450.207"/>
		<path style="fill:#C19817;" d="M256.004,273.655c-4.873,0-8.828-3.946-8.828-8.828V114.759c0-4.882,3.955-8.828,8.828-8.828
			s8.828,3.946,8.828,8.828v150.069C264.831,269.709,260.876,273.655,256.004,273.655"/>
		<path style="fill:#C19817;" d="M256.004,88.276c-4.873,0-8.828-3.946-8.828-8.828c0-4.882,3.955-8.828,8.828-8.828
			c9.737,0,17.655-7.918,17.655-17.655c0-4.882,3.955-8.828,8.828-8.828c4.873,0,8.828,3.946,8.828,8.828
			C291.314,72.439,275.477,88.276,256.004,88.276"/>
		<path style="fill:#C19817;" d="M105.935,494.345c-4.873,0-8.828-3.946-8.828-8.828v-256c0-68.149,71.283-123.586,158.897-123.586
			c4.873,0,8.828,3.946,8.828,8.828s-3.955,8.828-8.828,8.828c-77.877,0-141.241,47.519-141.241,105.931v256
			C114.762,490.399,110.807,494.345,105.935,494.345"/>
		<path style="fill:#C19817;" d="M167.728,441.379c-4.873,0-8.828-3.946-8.828-8.828v-70.621c0-4.882,3.955-8.828,8.828-8.828
			c4.873,0,8.828,3.946,8.828,8.828v70.621C176.555,437.433,172.6,441.379,167.728,441.379"/>
		<path style="fill:#C19817;" d="M167.728,335.448c-4.873,0-8.828-3.946-8.828-8.828v-97.103
			c0-68.149,43.564-123.586,97.103-123.586c4.873,0,8.828,3.946,8.828,8.828s-3.955,8.828-8.828,8.828
			c-43.802,0-79.448,47.519-79.448,105.931v97.103C176.555,331.502,172.6,335.448,167.728,335.448"/>
		<path style="fill:#C19817;" d="M406.073,450.207c-4.873,0-8.828-3.946-8.828-8.828V229.517
			c0-58.412-63.364-105.931-141.241-105.931c-4.873,0-8.828-3.946-8.828-8.828s3.955-8.828,8.828-8.828
			c87.614,0,158.897,55.437,158.897,123.586v211.862C414.9,446.261,410.945,450.207,406.073,450.207"/>
		<path style="fill:#C19817;" d="M344.279,450.207c-4.873,0-8.828-3.946-8.828-8.828V264.828c0-4.882,3.955-8.828,8.828-8.828
			s8.828,3.946,8.828,8.828v176.552C353.107,446.261,349.152,450.207,344.279,450.207"/>
		<path style="fill:#C19817;" d="M343.965,229.517c-4.608,0-8.492-3.584-8.801-8.254c-2.613-40.104-28.91-96.671-79.192-96.847
			c-4.882-0.018-8.81-3.981-8.792-8.863c0.018-4.864,3.964-8.792,8.828-8.792h0.026c58.05,0.212,93.175,58.562,96.75,113.355
			c0.318,4.864-3.372,9.066-8.236,9.384C344.354,229.508,344.159,229.517,343.965,229.517"/>
	</g>
	<g>
		<polygon style="fill:#EEC319;" points="35.314,512 52.969,512 52.969,397.241 35.314,397.241 		"/>
		<polygon style="fill:#EEC319;" points="459.038,512 476.693,512 476.693,397.241 459.038,397.241 		"/>
		<polygon style="fill:#EEC319;" points="247.176,512 264.831,512 264.831,397.241 247.176,397.241 		"/>
		<polygon style="fill:#EEC319;" points="158.9,512 176.555,512 176.555,397.241 158.9,397.241 		"/>
		<polygon style="fill:#EEC319;" points="335.452,512 353.107,512 353.107,397.241 335.452,397.241 		"/>
		<polygon style="fill:#EEC319;" points="397.245,512 414.9,512 414.9,397.241 397.245,397.241 		"/>
		<polygon style="fill:#EEC319;" points="97.107,512 114.762,512 114.762,397.241 97.107,397.241 		"/>
	</g>
	<polygon style="fill:#FFFFFF;" points="150.072,476.69 361.935,476.69 361.935,432.552 150.072,432.552 	"/>
</g>
</svg>